<svg width="30" height="30" viewBox="0 0 30 30" fill="none" xmlns="http://www.w3.org/2000/svg">
<path d="M13.8325 16.6525C14.2425 17.0425 14.2425 17.6825 13.8325 18.0725C13.4425 18.4625 12.8025 18.4625 12.4125 18.0725C10.4625 16.1225 10.4625 12.9525 12.4125 11.0025L15.9525 7.4625C17.9025 5.5125 21.0725 5.5125 23.0225 7.4625C24.9725 9.4125 24.9725 12.5825 23.0225 14.5325L21.5325 16.0225C21.5425 15.2025 21.4125 14.3825 21.1325 13.6025L21.6025 13.1225C22.7825 11.9525 22.7825 10.0525 21.6025 8.8825C20.4325 7.7025 18.5325 7.7025 17.3625 8.8825L13.8325 12.4125C12.6525 13.5825 12.6525 15.4825 13.8325 16.6525ZM16.6525 12.4125C17.0425 12.0225 17.6825 12.0225 18.0725 12.4125C20.0225 14.3625 20.0225 17.5325 18.0725 19.4825L14.5325 23.0225C12.5825 24.9725 9.4125 24.9725 7.4625 23.0225C5.5125 21.0725 5.5125 17.9025 7.4625 15.9525L8.9525 14.4625C8.9425 15.2825 9.0725 16.1025 9.3525 16.8925L8.8825 17.3625C7.7025 18.5325 7.7025 20.4325 8.8825 21.6025C10.0525 22.7825 11.9525 22.7825 13.1225 21.6025L16.6525 18.0725C17.8325 16.9025 17.8325 15.0025 16.6525 13.8325C16.2425 13.4425 16.2425 12.8025 16.6525 12.4125Z" fill="white"/>
</svg>
