<svg width="30" height="30" viewBox="0 0 30 30" fill="none" xmlns="http://www.w3.org/2000/svg">
<path fill-rule="evenodd" clip-rule="evenodd" d="M15 14.9998C15 12.9287 16.6789 11.2498 18.75 11.2498C20.8211 11.2498 22.5 12.9287 22.5 14.9998C22.5 17.0708 20.8211 18.7498 18.75 18.7498C16.6789 18.7498 15 17.0708 15 14.9998Z" fill="#1ABCFE"/>
<path fill-rule="evenodd" clip-rule="evenodd" d="M7.5 22.4998C7.5 20.4287 9.17893 18.7498 11.25 18.7498H15V22.4998C15 24.5708 13.3211 26.2498 11.25 26.2498C9.17893 26.2498 7.5 24.5708 7.5 22.4998Z" fill="#0ACF83"/>
<path fill-rule="evenodd" clip-rule="evenodd" d="M15 3.74976V11.2498H18.75C20.8211 11.2498 22.5 9.57082 22.5 7.49976C22.5 5.42869 20.8211 3.74976 18.75 3.74976H15Z" fill="#FF7262"/>
<path fill-rule="evenodd" clip-rule="evenodd" d="M7.5 7.49976C7.5 9.57082 9.17893 11.2498 11.25 11.2498H15V3.74976H11.25C9.17893 3.74976 7.5 5.42869 7.5 7.49976Z" fill="#F24E1E"/>
<path fill-rule="evenodd" clip-rule="evenodd" d="M7.5 14.9998C7.5 17.0708 9.17893 18.7498 11.25 18.7498H15V11.2498H11.25C9.17893 11.2498 7.5 12.9287 7.5 14.9998Z" fill="#A259FF"/>
</svg>
