<svg width="30" height="30" viewBox="0 0 30 30" fill="none" xmlns="http://www.w3.org/2000/svg">
<path fill-rule="evenodd" clip-rule="evenodd" d="M6.21186 26.2953L3.27277 22.6338C2.56563 21.7529 2.18182 20.6696 2.18182 19.5547V6.29651C2.18182 4.62643 3.51798 3.24064 5.24171 3.12295L18.8729 2.1923C19.8632 2.12468 20.8475 2.38791 21.661 2.9379L26.4503 6.17596C27.3076 6.75557 27.8182 7.70309 27.8182 8.71425V23.7875C27.8182 25.4219 26.5044 26.7751 24.8167 26.879L9.68758 27.8103C8.34082 27.8932 7.03905 27.3258 6.21186 26.2953Z" fill="white"/>
<path d="M10.5451 12.7299V12.5395C10.5451 12.0568 10.9318 11.6565 11.43 11.6232L15.0594 11.3809L20.0785 18.772V12.285L18.7866 12.1128V12.0224C18.7866 11.534 19.1821 11.131 19.6867 11.1052L22.989 10.936V11.4112C22.989 11.6343 22.8232 11.8251 22.5958 11.8636L21.8011 11.998V22.5034L20.8037 22.8464C19.9705 23.1329 19.0429 22.8262 18.5659 22.1064L13.6932 14.7535V21.7714L15.193 22.0585L15.1722 22.1976C15.1067 22.6333 14.7305 22.9629 14.2754 22.9832L10.5451 23.1492C10.4958 22.6806 10.847 22.2614 11.3315 22.2105L11.8222 22.1589V12.8017L10.5451 12.7299Z" fill="black"/>
<path fill-rule="evenodd" clip-rule="evenodd" d="M19.3828 2.78127L4.42831 3.80227C3.53255 3.86343 2.8382 4.58358 2.8382 5.45146V19.9967C2.8382 20.8121 3.1189 21.6044 3.63609 22.2487L6.86049 26.2656C7.38182 26.915 8.20224 27.2726 9.05102 27.2204L25.6488 26.1987C26.4995 26.1463 27.1617 25.4642 27.1617 24.6404V8.1039C27.1617 7.59421 26.9043 7.11661 26.4722 6.82445L21.218 3.27206C20.6825 2.91003 20.0346 2.73676 19.3828 2.78127ZM5.16988 5.67834C4.96188 5.52435 5.06087 5.20355 5.32216 5.18481L19.4834 4.16907C19.9346 4.13671 20.3829 4.26096 20.7478 4.51948L23.5891 6.53253C23.697 6.60895 23.6464 6.77394 23.5129 6.7812L8.51619 7.59681C8.06234 7.62149 7.61437 7.48816 7.25351 7.221L5.16988 5.67834ZM7.81279 10.1537C7.81279 9.6665 8.20638 9.26406 8.70969 9.23665L24.5654 8.37315C25.0559 8.34643 25.4689 8.72366 25.4689 9.19849V23.5173C25.4689 24.0036 25.0767 24.4057 24.5744 24.4343L8.81901 25.3307C8.27312 25.3618 7.81279 24.9423 7.81279 24.4138V10.1537Z" fill="black"/>
</svg>
