<svg width="940" height="804" viewBox="0 0 940 804" fill="none" xmlns="http://www.w3.org/2000/svg">
<path d="M0 0H932C932 0 988.89 171.929 790.824 268C592.758 364.071 857 506 583.047 640C309.094 774 440.607 804 226.194 804C11.781 804 0 804 0 804V0Z" fill="#F9F9F9"/>
<path d="M0 0H869.725C869.725 0 894 193 756 276C618 359 722 533 548 592C374 651 418.465 804 228 804C37.5347 804 0 804 0 804V0Z" fill="#6D36DA"/>
<path d="M0 0H869.725C869.725 0 894 193 756 276C618 359 722 533 548 592C374 651 418.465 804 228 804C37.5347 804 0 804 0 804V0Z" fill="url(#paint0_angular)" fill-opacity="0.1"/>
<g filter="url(#filter0_d)">
<rect x="425.5" y="379.5" width="79" height="79" stroke="#6D36DA" stroke-dasharray="20 20" shape-rendering="crispEdges"/>
</g>
<path fill-rule="evenodd" clip-rule="evenodd" d="M635.827 0L0 0V476.8C108.371 585.583 308.157 649.767 467.059 597.489C678.054 528.072 737.066 279.603 691.634 106.585C682.251 70.8487 662.723 34.4461 635.827 0Z" fill="url(#paint1_linear)"/>
<g filter="url(#filter1_dii)">
<path d="M108 220C108 211.716 114.716 205 123 205H393C401.284 205 408 211.716 408 220V474.639C408 482.923 401.284 489.639 393 489.639H123C114.716 489.639 108 482.923 108 474.639V220Z" fill="#F8F5FF"/>
</g>
<path d="M108 220C108 211.716 114.716 205 123 205H393C401.284 205 408 211.716 408 220V235H108V220Z" fill="#2D2D2D"/>
<path d="M142.762 268.47V271.62H146.992V273.618H142.762V276.948H147.532V279H140.242V266.418H147.532V268.47H142.762ZM153.638 279.162C152.822 279.162 152.09 279.018 151.442 278.73C150.794 278.43 150.278 278.028 149.894 277.524C149.522 277.02 149.318 276.462 149.282 275.85H151.82C151.868 276.234 152.054 276.552 152.378 276.804C152.714 277.056 153.128 277.182 153.62 277.182C154.1 277.182 154.472 277.086 154.736 276.894C155.012 276.702 155.15 276.456 155.15 276.156C155.15 275.832 154.982 275.592 154.646 275.436C154.322 275.268 153.8 275.088 153.08 274.896C152.336 274.716 151.724 274.53 151.244 274.338C150.776 274.146 150.368 273.852 150.02 273.456C149.684 273.06 149.516 272.526 149.516 271.854C149.516 271.302 149.672 270.798 149.984 270.342C150.308 269.886 150.764 269.526 151.352 269.262C151.952 268.998 152.654 268.866 153.458 268.866C154.646 268.866 155.594 269.166 156.302 269.766C157.01 270.354 157.4 271.152 157.472 272.16H155.06C155.024 271.764 154.856 271.452 154.556 271.224C154.268 270.984 153.878 270.864 153.386 270.864C152.93 270.864 152.576 270.948 152.324 271.116C152.084 271.284 151.964 271.518 151.964 271.818C151.964 272.154 152.132 272.412 152.468 272.592C152.804 272.76 153.326 272.934 154.034 273.114C154.754 273.294 155.348 273.48 155.816 273.672C156.284 273.864 156.686 274.164 157.022 274.572C157.37 274.968 157.55 275.496 157.562 276.156C157.562 276.732 157.4 277.248 157.076 277.704C156.764 278.16 156.308 278.52 155.708 278.784C155.12 279.036 154.43 279.162 153.638 279.162ZM162.565 271.098V275.922C162.565 276.258 162.643 276.504 162.799 276.66C162.967 276.804 163.243 276.876 163.627 276.876H164.797V279H163.213C161.089 279 160.027 277.968 160.027 275.904V271.098H158.839V269.028H160.027V266.562H162.565V269.028H164.797V271.098H162.565ZM176.023 269.028V279H173.485V277.74C173.161 278.172 172.735 278.514 172.207 278.766C171.691 279.006 171.127 279.126 170.515 279.126C169.735 279.126 169.045 278.964 168.445 278.64C167.845 278.304 167.371 277.818 167.023 277.182C166.687 276.534 166.519 275.766 166.519 274.878V269.028H169.039V274.518C169.039 275.31 169.237 275.922 169.633 276.354C170.029 276.774 170.569 276.984 171.253 276.984C171.949 276.984 172.495 276.774 172.891 276.354C173.287 275.922 173.485 275.31 173.485 274.518V269.028H176.023ZM177.862 273.978C177.862 272.97 178.06 272.076 178.456 271.296C178.864 270.516 179.416 269.916 180.112 269.496C180.808 269.076 181.582 268.866 182.434 268.866C183.082 268.866 183.7 269.01 184.288 269.298C184.876 269.574 185.344 269.946 185.692 270.414V265.68H188.248V279H185.692V277.524C185.38 278.016 184.942 278.412 184.378 278.712C183.814 279.012 183.16 279.162 182.416 279.162C181.576 279.162 180.808 278.946 180.112 278.514C179.416 278.082 178.864 277.476 178.456 276.696C178.06 275.904 177.862 274.998 177.862 273.978ZM185.71 274.014C185.71 273.402 185.59 272.88 185.35 272.448C185.11 272.004 184.786 271.668 184.378 271.44C183.97 271.2 183.532 271.08 183.064 271.08C182.596 271.08 182.164 271.194 181.768 271.422C181.372 271.65 181.048 271.986 180.796 272.43C180.556 272.862 180.436 273.378 180.436 273.978C180.436 274.578 180.556 275.106 180.796 275.562C181.048 276.006 181.372 276.348 181.768 276.588C182.176 276.828 182.608 276.948 183.064 276.948C183.532 276.948 183.97 276.834 184.378 276.606C184.786 276.366 185.11 276.03 185.35 275.598C185.59 275.154 185.71 274.626 185.71 274.014ZM190.061 273.978C190.061 272.97 190.259 272.076 190.655 271.296C191.063 270.516 191.609 269.916 192.293 269.496C192.989 269.076 193.763 268.866 194.615 268.866C195.359 268.866 196.007 269.016 196.559 269.316C197.123 269.616 197.573 269.994 197.909 270.45V269.028H200.447V279H197.909V277.542C197.585 278.01 197.135 278.4 196.559 278.712C195.995 279.012 195.341 279.162 194.597 279.162C193.757 279.162 192.989 278.946 192.293 278.514C191.609 278.082 191.063 277.476 190.655 276.696C190.259 275.904 190.061 274.998 190.061 273.978ZM197.909 274.014C197.909 273.402 197.789 272.88 197.549 272.448C197.309 272.004 196.985 271.668 196.577 271.44C196.169 271.2 195.731 271.08 195.263 271.08C194.795 271.08 194.363 271.194 193.967 271.422C193.571 271.65 193.247 271.986 192.995 272.43C192.755 272.862 192.635 273.378 192.635 273.978C192.635 274.578 192.755 275.106 192.995 275.562C193.247 276.006 193.571 276.348 193.967 276.588C194.375 276.828 194.807 276.948 195.263 276.948C195.731 276.948 196.169 276.834 196.577 276.606C196.985 276.366 197.309 276.03 197.549 275.598C197.789 275.154 197.909 274.626 197.909 274.014ZM208.434 268.884C209.622 268.884 210.582 269.262 211.314 270.018C212.046 270.762 212.412 271.806 212.412 273.15V279H209.892V273.492C209.892 272.7 209.694 272.094 209.298 271.674C208.902 271.242 208.362 271.026 207.678 271.026C206.982 271.026 206.43 271.242 206.022 271.674C205.626 272.094 205.428 272.7 205.428 273.492V279H202.908V269.028H205.428V270.27C205.764 269.838 206.19 269.502 206.706 269.262C207.234 269.01 207.81 268.884 208.434 268.884ZM217.742 271.098V275.922C217.742 276.258 217.82 276.504 217.976 276.66C218.144 276.804 218.42 276.876 218.804 276.876H219.974V279H218.39C216.266 279 215.204 277.968 215.204 275.904V271.098H214.016V269.028H215.204V266.562H217.742V269.028H219.974V271.098H217.742ZM231.057 273.798C231.057 274.158 231.033 274.482 230.985 274.77H223.695C223.755 275.49 224.007 276.054 224.451 276.462C224.895 276.87 225.441 277.074 226.089 277.074C227.025 277.074 227.691 276.672 228.087 275.868H230.805C230.517 276.828 229.965 277.62 229.149 278.244C228.333 278.856 227.331 279.162 226.143 279.162C225.183 279.162 224.319 278.952 223.551 278.532C222.795 278.1 222.201 277.494 221.769 276.714C221.349 275.934 221.139 275.034 221.139 274.014C221.139 272.982 221.349 272.076 221.769 271.296C222.189 270.516 222.777 269.916 223.533 269.496C224.289 269.076 225.159 268.866 226.143 268.866C227.091 268.866 227.937 269.07 228.681 269.478C229.437 269.886 230.019 270.468 230.427 271.224C230.847 271.968 231.057 272.826 231.057 273.798ZM228.447 273.078C228.435 272.43 228.201 271.914 227.745 271.53C227.289 271.134 226.731 270.936 226.071 270.936C225.447 270.936 224.919 271.128 224.487 271.512C224.067 271.884 223.809 272.406 223.713 273.078H228.447ZM236.712 279.162C235.896 279.162 235.164 279.018 234.516 278.73C233.868 278.43 233.352 278.028 232.968 277.524C232.596 277.02 232.392 276.462 232.356 275.85H234.894C234.942 276.234 235.128 276.552 235.452 276.804C235.788 277.056 236.202 277.182 236.694 277.182C237.174 277.182 237.546 277.086 237.81 276.894C238.086 276.702 238.224 276.456 238.224 276.156C238.224 275.832 238.056 275.592 237.72 275.436C237.396 275.268 236.874 275.088 236.154 274.896C235.41 274.716 234.798 274.53 234.318 274.338C233.85 274.146 233.442 273.852 233.094 273.456C232.758 273.06 232.59 272.526 232.59 271.854C232.59 271.302 232.746 270.798 233.058 270.342C233.382 269.886 233.838 269.526 234.426 269.262C235.026 268.998 235.728 268.866 236.532 268.866C237.72 268.866 238.668 269.166 239.376 269.766C240.084 270.354 240.474 271.152 240.546 272.16H238.134C238.098 271.764 237.93 271.452 237.63 271.224C237.342 270.984 236.952 270.864 236.46 270.864C236.004 270.864 235.65 270.948 235.398 271.116C235.158 271.284 235.038 271.518 235.038 271.818C235.038 272.154 235.206 272.412 235.542 272.592C235.878 272.76 236.4 272.934 237.108 273.114C237.828 273.294 238.422 273.48 238.89 273.672C239.358 273.864 239.76 274.164 240.096 274.572C240.444 274.968 240.624 275.496 240.636 276.156C240.636 276.732 240.474 277.248 240.15 277.704C239.838 278.16 239.382 278.52 238.782 278.784C238.194 279.036 237.504 279.162 236.712 279.162Z" fill="#4F4F4F"/>
<rect x="149.084" y="326.675" width="18" height="95" rx="5" fill="#5F77F0"/>
<path d="M149 375H167V417C167 419.761 164.761 422 162 422H154C151.239 422 149 419.761 149 417V375Z" fill="#4A60D1"/>
<rect x="183" y="302" width="18" height="120" rx="5" fill="#5F77F0"/>
<path d="M183 344H201V417C201 419.761 198.761 422 196 422H188C185.239 422 183 419.761 183 417V344Z" fill="#4A60D1"/>
<rect x="282.036" y="307.603" width="18" height="115" rx="5" fill="#5F77F0"/>
<path d="M282.036 334H300.036V418C300.036 420.761 297.798 423 295.036 423H287.036C284.275 423 282.036 420.761 282.036 418V334Z" fill="#4A60D1"/>
<rect x="216" y="337" width="18" height="85" rx="5" fill="#5F77F0"/>
<path d="M216 370H234V418C234 420.761 231.761 423 229 423H221C218.239 423 216 420.761 216 418V370Z" fill="#4A60D1"/>
<rect x="249" y="390.832" width="18" height="30" rx="5" fill="#5F77F0"/>
<path d="M249.036 409H267.036V418C267.036 420.761 264.798 423 262.036 423H254.036C251.275 423 249.036 420.761 249.036 418V409Z" fill="#4A60D1"/>
<rect x="315.036" y="302.277" width="18" height="120.181" rx="5" fill="#5F77F0"/>
<path d="M315.036 391H333.036V417C333.036 419.761 330.798 422 328.036 422H320.036C317.275 422 315.036 419.761 315.036 417V391Z" fill="#4A60D1"/>
<rect x="348.036" y="326.675" width="18" height="95.7831" rx="5" fill="#5F77F0"/>
<path d="M348.036 382H366.036V417C366.036 419.761 363.798 422 361.036 422H353.036C350.275 422 348.036 419.761 348.036 417V382Z" fill="#4A60D1"/>
<g filter="url(#filter2_dii)">
<path d="M281 297C281 288.716 287.716 282 296 282H546C554.284 282 561 288.716 561 297V532.663C561 540.947 554.284 547.663 546 547.663H296C287.716 547.663 281 540.947 281 532.663V297Z" fill="#F8F5FF"/>
</g>
<path d="M281 297C281 288.716 287.716 282 296 282H546C554.284 282 561 288.716 561 297V310H281V297Z" fill="#2D2D2D"/>
<path d="M311.762 347.47V350.62H315.992V352.618H311.762V355.948H316.532V358H309.242V345.418H316.532V347.47H311.762ZM322.638 358.162C321.822 358.162 321.09 358.018 320.442 357.73C319.794 357.43 319.278 357.028 318.894 356.524C318.522 356.02 318.318 355.462 318.282 354.85H320.82C320.868 355.234 321.054 355.552 321.378 355.804C321.714 356.056 322.128 356.182 322.62 356.182C323.1 356.182 323.472 356.086 323.736 355.894C324.012 355.702 324.15 355.456 324.15 355.156C324.15 354.832 323.982 354.592 323.646 354.436C323.322 354.268 322.8 354.088 322.08 353.896C321.336 353.716 320.724 353.53 320.244 353.338C319.776 353.146 319.368 352.852 319.02 352.456C318.684 352.06 318.516 351.526 318.516 350.854C318.516 350.302 318.672 349.798 318.984 349.342C319.308 348.886 319.764 348.526 320.352 348.262C320.952 347.998 321.654 347.866 322.458 347.866C323.646 347.866 324.594 348.166 325.302 348.766C326.01 349.354 326.4 350.152 326.472 351.16H324.06C324.024 350.764 323.856 350.452 323.556 350.224C323.268 349.984 322.878 349.864 322.386 349.864C321.93 349.864 321.576 349.948 321.324 350.116C321.084 350.284 320.964 350.518 320.964 350.818C320.964 351.154 321.132 351.412 321.468 351.592C321.804 351.76 322.326 351.934 323.034 352.114C323.754 352.294 324.348 352.48 324.816 352.672C325.284 352.864 325.686 353.164 326.022 353.572C326.37 353.968 326.55 354.496 326.562 355.156C326.562 355.732 326.4 356.248 326.076 356.704C325.764 357.16 325.308 357.52 324.708 357.784C324.12 358.036 323.43 358.162 322.638 358.162ZM327.983 353.014C327.983 351.982 328.193 351.082 328.613 350.314C329.033 349.534 329.615 348.934 330.359 348.514C331.103 348.082 331.955 347.866 332.915 347.866C334.151 347.866 335.171 348.178 335.975 348.802C336.791 349.414 337.337 350.278 337.613 351.394H334.895C334.751 350.962 334.505 350.626 334.157 350.386C333.821 350.134 333.401 350.008 332.897 350.008C332.177 350.008 331.607 350.272 331.187 350.8C330.767 351.316 330.557 352.054 330.557 353.014C330.557 353.962 330.767 354.7 331.187 355.228C331.607 355.744 332.177 356.002 332.897 356.002C333.917 356.002 334.583 355.546 334.895 354.634H337.613C337.337 355.714 336.791 356.572 335.975 357.208C335.159 357.844 334.139 358.162 332.915 358.162C331.955 358.162 331.103 357.952 330.359 357.532C329.615 357.1 329.033 356.5 328.613 355.732C328.193 354.952 327.983 354.046 327.983 353.014ZM343.887 358.162C342.927 358.162 342.063 357.952 341.295 357.532C340.527 357.1 339.921 356.494 339.477 355.714C339.045 354.934 338.829 354.034 338.829 353.014C338.829 351.994 339.051 351.094 339.495 350.314C339.951 349.534 340.569 348.934 341.349 348.514C342.129 348.082 342.999 347.866 343.959 347.866C344.919 347.866 345.789 348.082 346.569 348.514C347.349 348.934 347.961 349.534 348.405 350.314C348.861 351.094 349.089 351.994 349.089 353.014C349.089 354.034 348.855 354.934 348.387 355.714C347.931 356.494 347.307 357.1 346.515 357.532C345.735 357.952 344.859 358.162 343.887 358.162ZM343.887 355.966C344.343 355.966 344.769 355.858 345.165 355.642C345.573 355.414 345.897 355.078 346.137 354.634C346.377 354.19 346.497 353.65 346.497 353.014C346.497 352.066 346.245 351.34 345.741 350.836C345.249 350.32 344.643 350.062 343.923 350.062C343.203 350.062 342.597 350.32 342.105 350.836C341.625 351.34 341.385 352.066 341.385 353.014C341.385 353.962 341.619 354.694 342.087 355.21C342.567 355.714 343.167 355.966 343.887 355.966ZM353.457 344.68V358H350.937V344.68H353.457ZM355.299 352.978C355.299 351.97 355.497 351.076 355.893 350.296C356.301 349.516 356.847 348.916 357.531 348.496C358.227 348.076 359.001 347.866 359.853 347.866C360.597 347.866 361.245 348.016 361.797 348.316C362.361 348.616 362.811 348.994 363.147 349.45V348.028H365.685V358H363.147V356.542C362.823 357.01 362.373 357.4 361.797 357.712C361.233 358.012 360.579 358.162 359.835 358.162C358.995 358.162 358.227 357.946 357.531 357.514C356.847 357.082 356.301 356.476 355.893 355.696C355.497 354.904 355.299 353.998 355.299 352.978ZM363.147 353.014C363.147 352.402 363.027 351.88 362.787 351.448C362.547 351.004 362.223 350.668 361.815 350.44C361.407 350.2 360.969 350.08 360.501 350.08C360.033 350.08 359.601 350.194 359.205 350.422C358.809 350.65 358.485 350.986 358.233 351.43C357.993 351.862 357.873 352.378 357.873 352.978C357.873 353.578 357.993 354.106 358.233 354.562C358.485 355.006 358.809 355.348 359.205 355.588C359.613 355.828 360.045 355.948 360.501 355.948C360.969 355.948 361.407 355.834 361.815 355.606C362.223 355.366 362.547 355.03 362.787 354.598C363.027 354.154 363.147 353.626 363.147 353.014ZM371.962 358.162C371.146 358.162 370.414 358.018 369.766 357.73C369.118 357.43 368.602 357.028 368.218 356.524C367.846 356.02 367.642 355.462 367.606 354.85H370.144C370.192 355.234 370.378 355.552 370.702 355.804C371.038 356.056 371.452 356.182 371.944 356.182C372.424 356.182 372.796 356.086 373.06 355.894C373.336 355.702 373.474 355.456 373.474 355.156C373.474 354.832 373.306 354.592 372.97 354.436C372.646 354.268 372.124 354.088 371.404 353.896C370.66 353.716 370.048 353.53 369.568 353.338C369.1 353.146 368.692 352.852 368.344 352.456C368.008 352.06 367.84 351.526 367.84 350.854C367.84 350.302 367.996 349.798 368.308 349.342C368.632 348.886 369.088 348.526 369.676 348.262C370.276 347.998 370.978 347.866 371.782 347.866C372.97 347.866 373.918 348.166 374.626 348.766C375.334 349.354 375.724 350.152 375.796 351.16H373.384C373.348 350.764 373.18 350.452 372.88 350.224C372.592 349.984 372.202 349.864 371.71 349.864C371.254 349.864 370.9 349.948 370.648 350.116C370.408 350.284 370.288 350.518 370.288 350.818C370.288 351.154 370.456 351.412 370.792 351.592C371.128 351.76 371.65 351.934 372.358 352.114C373.078 352.294 373.672 352.48 374.14 352.672C374.608 352.864 375.01 353.164 375.346 353.572C375.694 353.968 375.874 354.496 375.886 355.156C375.886 355.732 375.724 356.248 375.4 356.704C375.088 357.16 374.632 357.52 374.032 357.784C373.444 358.036 372.754 358.162 371.962 358.162Z" fill="#4F4F4F"/>
<path d="M308 482L387 412L431 488L487 447L537 456" stroke="#10A454" stroke-width="3"/>
<path d="M312 407L400 462L449 433L490 425L534 388" stroke="#5F77F0" stroke-width="3"/>
<circle cx="490.5" cy="424.5" r="3.5" fill="#5F77F0"/>
<circle cx="430.5" cy="487.5" r="3.5" fill="#10A454"/>
<circle cx="430.5" cy="487.5" r="3.5" fill="#10A454"/>
<circle cx="487.5" cy="446.5" r="3.5" fill="#10A454"/>
<circle cx="487.5" cy="446.5" r="3.5" fill="#10A454"/>
<circle cx="386.5" cy="412.5" r="3.5" fill="#10A454"/>
<circle cx="386.5" cy="412.5" r="3.5" fill="#10A454"/>
<circle cx="399.5" cy="461.5" r="3.5" fill="#5F77F0"/>
<circle cx="449.5" cy="432.5" r="3.5" fill="#5F77F0"/>
<rect x="383" y="215" width="10" height="10" rx="1" fill="#4A60D1"/>
<circle cx="536" cy="296" r="5" fill="#0FAD58"/>
<defs>
<filter id="filter0_d" x="405" y="369" width="120" height="120" filterUnits="userSpaceOnUse" color-interpolation-filters="sRGB">
<feFlood flood-opacity="0" result="BackgroundImageFix"/>
<feColorMatrix in="SourceAlpha" type="matrix" values="0 0 0 0 0 0 0 0 0 0 0 0 0 0 0 0 0 0 127 0" result="hardAlpha"/>
<feOffset dy="10"/>
<feGaussianBlur stdDeviation="10"/>
<feComposite in2="hardAlpha" operator="out"/>
<feColorMatrix type="matrix" values="0 0 0 0 0 0 0 0 0 0 0 0 0 0 0 0 0 0 0.15 0"/>
<feBlend mode="normal" in2="BackgroundImageFix" result="effect1_dropShadow"/>
<feBlend mode="normal" in="SourceGraphic" in2="effect1_dropShadow" result="shape"/>
</filter>
<filter id="filter1_dii" x="48" y="195" width="460" height="444.639" filterUnits="userSpaceOnUse" color-interpolation-filters="sRGB">
<feFlood flood-opacity="0" result="BackgroundImageFix"/>
<feColorMatrix in="SourceAlpha" type="matrix" values="0 0 0 0 0 0 0 0 0 0 0 0 0 0 0 0 0 0 127 0" result="hardAlpha"/>
<feOffset dx="20" dy="70"/>
<feGaussianBlur stdDeviation="40"/>
<feComposite in2="hardAlpha" operator="out"/>
<feColorMatrix type="matrix" values="0 0 0 0 0 0 0 0 0 0 0 0 0 0 0 0 0 0 0.15 0"/>
<feBlend mode="normal" in2="BackgroundImageFix" result="effect1_dropShadow"/>
<feBlend mode="normal" in="SourceGraphic" in2="effect1_dropShadow" result="shape"/>
<feColorMatrix in="SourceAlpha" type="matrix" values="0 0 0 0 0 0 0 0 0 0 0 0 0 0 0 0 0 0 127 0" result="hardAlpha"/>
<feOffset dx="-5" dy="-2"/>
<feGaussianBlur stdDeviation="7.5"/>
<feComposite in2="hardAlpha" operator="arithmetic" k2="-1" k3="1"/>
<feColorMatrix type="matrix" values="0 0 0 0 0 0 0 0 0 0 0 0 0 0 0 0 0 0 0.1 0"/>
<feBlend mode="normal" in2="shape" result="effect2_innerShadow"/>
<feColorMatrix in="SourceAlpha" type="matrix" values="0 0 0 0 0 0 0 0 0 0 0 0 0 0 0 0 0 0 127 0" result="hardAlpha"/>
<feOffset dx="10" dy="4"/>
<feGaussianBlur stdDeviation="15"/>
<feComposite in2="hardAlpha" operator="arithmetic" k2="-1" k3="1"/>
<feColorMatrix type="matrix" values="0 0 0 0 0 0 0 0 0 0 0 0 0 0 0 0 0 0 0.1 0"/>
<feBlend mode="normal" in2="effect2_innerShadow" result="effect3_innerShadow"/>
</filter>
<filter id="filter2_dii" x="221" y="272" width="440" height="425.663" filterUnits="userSpaceOnUse" color-interpolation-filters="sRGB">
<feFlood flood-opacity="0" result="BackgroundImageFix"/>
<feColorMatrix in="SourceAlpha" type="matrix" values="0 0 0 0 0 0 0 0 0 0 0 0 0 0 0 0 0 0 127 0" result="hardAlpha"/>
<feOffset dx="20" dy="70"/>
<feGaussianBlur stdDeviation="40"/>
<feComposite in2="hardAlpha" operator="out"/>
<feColorMatrix type="matrix" values="0 0 0 0 0 0 0 0 0 0 0 0 0 0 0 0 0 0 0.15 0"/>
<feBlend mode="normal" in2="BackgroundImageFix" result="effect1_dropShadow"/>
<feBlend mode="normal" in="SourceGraphic" in2="effect1_dropShadow" result="shape"/>
<feColorMatrix in="SourceAlpha" type="matrix" values="0 0 0 0 0 0 0 0 0 0 0 0 0 0 0 0 0 0 127 0" result="hardAlpha"/>
<feOffset dx="-5" dy="-2"/>
<feGaussianBlur stdDeviation="7.5"/>
<feComposite in2="hardAlpha" operator="arithmetic" k2="-1" k3="1"/>
<feColorMatrix type="matrix" values="0 0 0 0 0 0 0 0 0 0 0 0 0 0 0 0 0 0 0.1 0"/>
<feBlend mode="normal" in2="shape" result="effect2_innerShadow"/>
<feColorMatrix in="SourceAlpha" type="matrix" values="0 0 0 0 0 0 0 0 0 0 0 0 0 0 0 0 0 0 127 0" result="hardAlpha"/>
<feOffset dx="10" dy="4"/>
<feGaussianBlur stdDeviation="15"/>
<feComposite in2="hardAlpha" operator="arithmetic" k2="-1" k3="1"/>
<feColorMatrix type="matrix" values="0 0 0 0 0 0 0 0 0 0 0 0 0 0 0 0 0 0 0.1 0"/>
<feBlend mode="normal" in2="effect2_innerShadow" result="effect3_innerShadow"/>
</filter>
<radialGradient id="paint0_angular" cx="0" cy="0" r="1" gradientUnits="userSpaceOnUse" gradientTransform="translate(436 402) rotate(-138.205) scale(354.107 384.057)">
<stop offset="0.0812499" stop-opacity="0"/>
<stop offset="1"/>
</radialGradient>
<linearGradient id="paint1_linear" x1="178.005" y1="-268.861" x2="463.425" y2="598.684" gradientUnits="userSpaceOnUse">
<stop stop-color="#9965FF"/>
<stop offset="1" stop-color="#6D36DA" stop-opacity="0"/>
</linearGradient>
</defs>
</svg>
