<svg width="388" height="54" viewBox="0 0 388 54" fill="none" xmlns="http://www.w3.org/2000/svg">
<path d="M69.792 20.884V24.016H77.712V30.028H69.792V33.628H78.792V40H61.8V14.512H78.792V20.884H69.792ZM93.5759 40.252C90.5279 40.252 88.0079 39.544 86.0159 38.128C84.0479 36.688 82.9799 34.588 82.8119 31.828H91.3079C91.4279 33.292 92.0759 34.024 93.2519 34.024C93.6839 34.024 94.0439 33.928 94.3319 33.736C94.6439 33.52 94.7999 33.196 94.7999 32.764C94.7999 32.164 94.4759 31.684 93.8279 31.324C93.1799 30.94 92.1719 30.508 90.8039 30.028C89.1719 29.452 87.8159 28.888 86.7359 28.336C85.6799 27.784 84.7679 26.98 83.9999 25.924C83.2319 24.868 82.8599 23.512 82.8839 21.856C82.8839 20.2 83.3039 18.796 84.1439 17.644C85.0079 16.468 86.1719 15.58 87.6359 14.98C89.1239 14.38 90.7919 14.08 92.6399 14.08C95.7599 14.08 98.2319 14.8 100.056 16.24C101.904 17.68 102.876 19.708 102.972 22.324H94.3679C94.3439 21.604 94.1639 21.088 93.8279 20.776C93.4919 20.464 93.0839 20.308 92.6039 20.308C92.2679 20.308 91.9919 20.428 91.7759 20.668C91.5599 20.884 91.4519 21.196 91.4519 21.604C91.4519 22.18 91.7639 22.66 92.3879 23.044C93.0359 23.404 94.0559 23.848 95.4479 24.376C97.0559 24.976 98.3759 25.552 99.4079 26.104C100.464 26.656 101.376 27.424 102.144 28.408C102.912 29.392 103.296 30.628 103.296 32.116C103.296 33.676 102.912 35.08 102.144 36.328C101.376 37.552 100.26 38.512 98.7959 39.208C97.3319 39.904 95.5919 40.252 93.5759 40.252ZM127.92 14.512V20.848H121.152V40H113.16V20.848H106.464V14.512H127.92ZM139.7 14.512V28.876C139.7 30.052 139.952 30.988 140.456 31.684C140.984 32.356 141.824 32.692 142.976 32.692C144.128 32.692 144.98 32.356 145.532 31.684C146.084 30.988 146.36 30.052 146.36 28.876V14.512H154.316V28.876C154.316 31.3 153.812 33.376 152.804 35.104C151.796 36.808 150.416 38.092 148.664 38.956C146.912 39.82 144.956 40.252 142.796 40.252C140.636 40.252 138.716 39.82 137.036 38.956C135.38 38.092 134.084 36.808 133.148 35.104C132.212 33.4 131.744 31.324 131.744 28.876V14.512H139.7ZM170.182 14.512C172.846 14.512 175.174 15.052 177.166 16.132C179.182 17.212 180.73 18.712 181.81 20.632C182.89 22.552 183.43 24.736 183.43 27.184C183.43 29.608 182.89 31.792 181.81 33.736C180.73 35.68 179.182 37.216 177.166 38.344C175.174 39.448 172.846 40 170.182 40H159.562V14.512H170.182ZM169.462 32.872C171.262 32.872 172.69 32.38 173.746 31.396C174.802 30.412 175.33 29.008 175.33 27.184C175.33 25.36 174.802 23.956 173.746 22.972C172.69 21.988 171.262 21.496 169.462 21.496H167.554V32.872H169.462ZM204.46 36.148H195.964L194.704 40H186.316L195.64 14.512H204.856L214.144 40H205.72L204.46 36.148ZM202.516 30.136L200.212 23.044L197.908 30.136H202.516ZM242.204 40H234.212L225.752 27.184V40H217.76V14.512H225.752L234.212 27.544V14.512H242.204V40ZM267.631 14.512V20.848H260.863V40H252.871V20.848H246.175V14.512H267.631ZM279.59 14.512V40H271.598V14.512H279.59ZM309.444 40H301.452L292.992 27.184V40H285V14.512H292.992L301.452 27.544V14.512H309.444V40ZM325.475 14.512C328.139 14.512 330.467 15.052 332.459 16.132C334.475 17.212 336.023 18.712 337.103 20.632C338.183 22.552 338.723 24.736 338.723 27.184C338.723 29.608 338.183 31.792 337.103 33.736C336.023 35.68 334.475 37.216 332.459 38.344C330.467 39.448 328.139 40 325.475 40H314.855V14.512H325.475ZM324.755 32.872C326.555 32.872 327.983 32.38 329.039 31.396C330.095 30.412 330.623 29.008 330.623 27.184C330.623 25.36 330.095 23.956 329.039 22.972C327.983 21.988 326.555 21.496 324.755 21.496H322.847V32.872H324.755ZM351.401 20.884V24.016H359.321V30.028H351.401V33.628H360.401V40H343.409V14.512H360.401V20.884H351.401ZM378.029 40L373.241 30.856H373.205V40H365.213V14.512H377.093C379.157 14.512 380.921 14.884 382.385 15.628C383.849 16.348 384.941 17.344 385.661 18.616C386.405 19.864 386.777 21.28 386.777 22.864C386.777 24.568 386.297 26.08 385.337 27.4C384.401 28.72 383.045 29.668 381.269 30.244L386.813 40H378.029ZM373.205 25.528H376.373C377.141 25.528 377.717 25.36 378.101 25.024C378.485 24.664 378.677 24.112 378.677 23.368C378.677 22.696 378.473 22.168 378.065 21.784C377.681 21.4 377.117 21.208 376.373 21.208H373.205V25.528Z" fill="white"/>
<path d="M25 7L0 20.3333L25 33.6667L45.4545 22.7556V38.1111H50V20.3333L25 7ZM9.09091 29.6222V38.5111L25 47L40.9091 38.5111V29.6222L25 38.1111L9.09091 29.6222Z" fill="white"/>
</svg>
