<svg width="330" height="284" viewBox="0 0 330 284" fill="none" xmlns="http://www.w3.org/2000/svg">
<path d="M165 283.189C256.127 283.189 330 278.876 330 273.555C330 268.235 256.127 263.922 165 263.922C73.873 263.922 0 268.235 0 273.555C0 278.876 73.873 283.189 165 283.189Z" fill="#E8E8E8"/>
<path d="M63.1856 84.6513C62.4367 86.3533 61.6112 88.1914 60.8879 89.9871C60.1645 91.7827 59.4156 93.6293 58.7604 95.4675C57.4159 99.0509 56.3379 102.729 55.5351 106.471L55.2883 107.832L55.2032 108.343C55.2032 108.488 55.2032 108.675 55.1521 108.845C55.1198 109.674 55.1368 110.504 55.2032 111.33C55.3649 113.126 55.6542 115.049 56.0542 116.972C56.769 120.827 57.6796 124.801 58.6072 128.716L54.2416 130.418C52.2065 126.708 50.4734 122.841 49.059 118.853C48.3138 116.777 47.711 114.653 47.2549 112.496C46.9993 111.302 46.8399 110.09 46.7783 108.871C46.7783 108.53 46.7783 108.207 46.7783 107.841C46.7783 107.475 46.7783 107.067 46.8379 106.828L47.0081 105.126C47.2624 102.934 47.6517 100.76 48.174 98.6162C48.6505 96.4887 49.2632 94.4208 49.876 92.3784C50.4887 90.336 51.2546 88.3276 52.063 86.3533C52.463 85.3661 52.914 84.3875 53.3055 83.4088C53.6969 82.4302 54.1565 81.4941 54.7011 80.4474L63.1856 84.6513Z" fill="#E4897B"/>
<path d="M58.3794 127.566L61.6983 130.809L54.4563 134.213C54.4563 134.213 52.7032 131.14 53.9202 128.366L58.3794 127.566Z" fill="#E4897B"/>
<path d="M64.378 135.634L58.2593 138.136L54.4639 134.179L61.6974 130.809L64.378 135.634Z" fill="#E4897B"/>
<path opacity="0.4" d="M188.325 132.145C176.284 130.793 164.914 125.902 155.653 118.089C146.392 110.276 139.655 99.893 136.294 88.2519C132.933 76.6109 133.099 64.2348 136.771 52.688C140.443 41.1413 147.455 30.9424 156.923 23.3807C166.39 15.819 177.887 11.234 189.959 10.2053C202.032 9.17656 214.139 11.7504 224.749 17.6013C235.359 23.4522 243.996 32.3176 249.569 43.0766C255.141 53.8357 257.399 66.0054 256.056 78.0472C255.164 86.0478 252.703 93.7941 248.816 100.843C244.929 107.893 239.69 114.107 233.4 119.131C227.11 124.155 219.892 127.89 212.158 130.123C204.423 132.356 196.325 133.043 188.325 132.145Z" fill="#FAFAFA"/>
<path opacity="0.4" d="M232.9 22.9797L139.716 97.4335C139.324 96.5825 138.942 95.7315 138.584 94.8805C136.248 89.3238 134.754 83.4497 134.15 77.4521L214.638 13.1422C221.246 15.3464 227.424 18.6744 232.9 22.9797Z" fill="#FAFAFA"/>
<path opacity="0.4" d="M254.406 55.5974L166.796 125.592C158.473 121.253 151.26 115.057 145.717 107.483L241.377 31.0461C247.544 38.1238 252.001 46.5237 254.406 55.5974Z" fill="#FAFAFA"/>
<path d="M126.185 47.8369L125.377 47.5646C126.777 43.433 128.537 39.4322 130.636 35.6081L131.376 36.0165C129.305 39.7979 127.568 43.753 126.185 47.8369ZM136.517 27.9746L135.827 27.4725C142.821 18.0161 151.974 10.3687 162.523 5.16786L162.906 5.93376C152.477 11.0809 143.429 18.6466 136.517 28.0001V27.9746ZM229.777 7.09962C226.996 5.60803 224.119 4.30313 221.165 3.19354L221.472 2.3936C224.455 3.52922 227.36 4.85964 230.169 6.37627L229.777 7.09962Z" fill="#37D38E"/>
<path opacity="0.3" d="M126.185 47.8369L125.377 47.5646C126.777 43.433 128.537 39.4322 130.636 35.6081L131.376 36.0165C129.305 39.7979 127.568 43.753 126.185 47.8369ZM136.517 27.9746L135.827 27.4725C142.821 18.0161 151.974 10.3687 162.523 5.16786L162.906 5.93376C152.477 11.0809 143.429 18.6466 136.517 28.0001V27.9746ZM229.777 7.09962C226.996 5.60803 224.119 4.30313 221.165 3.19354L221.472 2.3936C224.455 3.52922 227.36 4.85964 230.169 6.37627L229.777 7.09962Z" fill="black"/>
<path d="M258.499 39.9563C250.619 23.6131 236.752 10.9291 219.773 4.53359C202.794 -1.86191 184.005 -1.47831 167.301 5.60485C150.597 12.688 137.259 25.9275 130.053 42.5786C122.846 59.2298 122.324 78.0155 128.594 95.0414C122.909 97.0327 117.293 99.1687 111.71 101.373C103.66 104.567 95.683 107.903 87.78 111.381C79.8828 114.878 72.0195 118.444 64.2329 122.171C60.3268 124.001 56.4718 125.933 52.5828 127.805C50.5596 128.674 48.7266 129.932 47.1874 131.507C46.3545 132.379 45.621 133.341 45.0004 134.375C44.2431 135.597 43.6696 136.925 43.2984 138.315C42.658 140.819 42.9349 143.47 44.079 145.787C45.2231 148.105 47.1589 149.937 49.5362 150.952C50.8563 151.506 52.2492 151.867 53.672 152.024C54.8738 152.16 56.087 152.16 57.2888 152.024C59.4726 151.759 61.5833 151.068 63.5011 149.99C67.3561 148.042 71.2366 146.161 75.0661 144.161C82.7251 140.255 90.3841 136.179 97.9495 132.043C105.515 127.907 113.089 123.575 120.475 119.133C125.581 116.044 130.738 112.887 135.793 109.585C145.5 124.909 160.73 135.91 178.327 140.311C195.925 144.711 214.541 142.173 230.318 133.221C246.094 124.27 257.823 109.592 263.072 92.2293C268.322 74.8663 266.69 56.1491 258.516 39.9563H258.499ZM219.812 121.252C209.923 126.134 198.807 127.973 187.872 126.538C176.937 125.103 166.673 120.457 158.378 113.189C150.083 105.92 144.13 96.3557 141.27 85.7039C138.411 75.0521 138.774 63.7917 142.314 53.3464C145.854 42.9011 152.412 33.74 161.159 27.0216C169.905 20.3031 180.447 16.329 191.452 15.6017C202.457 14.8744 213.43 17.4266 222.985 22.9356C232.539 28.4446 240.246 36.663 245.13 46.5515C248.373 53.1186 250.291 60.2603 250.774 67.5688C251.257 74.8772 250.296 82.2092 247.945 89.1461C245.594 96.0829 241.899 102.489 237.072 107.997C232.245 113.506 226.38 118.01 219.812 121.252Z" fill="#6D36DA"/>
<path d="M86.707 54.2616C86.707 54.7637 86.9708 55.1722 87.3027 55.1722C87.6346 55.1722 87.8984 54.7637 87.8984 54.2616C87.8984 53.7596 87.6346 53.3511 87.3027 53.3511C86.9708 53.3511 86.707 53.7936 86.707 54.2616Z" fill="#263238"/>
<path d="M86.9473 55.1719C87.5496 56.7131 88.3599 58.1648 89.3556 59.4864C89.0113 59.7327 88.6174 59.9007 88.2014 59.9786C87.7853 60.0565 87.3573 60.0425 86.9473 59.9375V55.1719Z" fill="#DE5753"/>
<path d="M84.9466 51.462C84.8992 51.462 84.8523 51.4513 84.8096 51.4307C84.7668 51.4101 84.7293 51.38 84.6998 51.3429C84.6555 51.2779 84.6378 51.1984 84.6505 51.1208C84.6632 51.0431 84.7052 50.9734 84.7679 50.9259C85.1427 50.6416 85.5806 50.4522 86.0444 50.3737C86.5082 50.2951 86.9841 50.3298 87.4315 50.4748C87.4717 50.4858 87.5092 50.505 87.5414 50.5314C87.5737 50.5577 87.6001 50.5905 87.619 50.6276C87.6378 50.6648 87.6486 50.7055 87.6507 50.7471C87.6528 50.7887 87.6462 50.8303 87.6312 50.8691C87.6163 50.908 87.5933 50.9433 87.5639 50.9728C87.5345 51.0022 87.4992 51.0252 87.4603 51.0402C87.4214 51.0551 87.3798 51.0618 87.3382 51.0597C87.2966 51.0576 87.256 51.0468 87.2188 51.028C86.8634 50.919 86.4869 50.8969 86.1212 50.9635C85.7554 51.0301 85.411 51.1836 85.1168 51.4109C85.0664 51.4444 85.0071 51.4622 84.9466 51.462Z" fill="#263238"/>
<path d="M69.5181 58.0489C70.3691 62.6187 71.3052 71.0011 68.1055 74.0561C68.1055 74.0561 69.3564 78.6941 77.8579 78.6941C87.2189 78.6941 82.3171 74.0561 82.3171 74.0561C77.2111 72.8307 77.3558 69.0523 78.2409 65.4951L69.5181 58.0489Z" fill="#E4897B"/>
<path d="M64.284 76.4639C65.2967 74.8895 63.5947 71.0686 63.5947 71.0686C63.5947 71.0686 78.6404 67.2816 84.7931 73.0939C86.0696 74.2938 84.6569 76.0639 84.6569 76.0639L64.284 76.4639Z" fill="#37D38E"/>
<path opacity="0.1" d="M64.284 76.4639C65.2967 74.8895 63.5947 71.0686 63.5947 71.0686C63.5947 71.0686 78.6404 67.2816 84.7931 73.0939C86.0696 74.2938 84.6569 76.0639 84.6569 76.0639L64.284 76.4639Z" fill="black"/>
<path d="M39.3921 250.094C38.6007 250.094 37.3327 248.775 36.9583 248.281C36.9422 248.257 36.9336 248.229 36.9336 248.2C36.9336 248.171 36.9422 248.143 36.9583 248.119C36.972 248.095 36.9919 248.076 37.0159 248.062C37.0398 248.049 37.067 248.042 37.0944 248.043C37.1881 248.043 39.273 248.23 39.8432 248.97C39.9052 249.048 39.9495 249.139 39.973 249.236C39.9965 249.333 39.9986 249.434 39.9793 249.532C39.9719 249.659 39.9254 249.78 39.8461 249.879C39.7668 249.978 39.6588 250.05 39.5368 250.085L39.3921 250.094ZM37.4178 248.392C38.0391 249.106 39.0347 249.915 39.4602 249.813C39.4602 249.813 39.6304 249.77 39.6815 249.498C39.6927 249.441 39.6908 249.382 39.6761 249.326C39.6614 249.27 39.6341 249.218 39.5964 249.175C38.966 248.697 38.2074 248.419 37.4178 248.375V248.392Z" fill="#37D38E"/>
<path d="M37.5119 248.374C37.3591 248.389 37.2052 248.389 37.0524 248.374C37.0255 248.372 36.9998 248.362 36.9786 248.345C36.9574 248.329 36.9416 248.306 36.9332 248.28C36.9213 248.257 36.915 248.23 36.915 248.204C36.915 248.177 36.9213 248.151 36.9332 248.127C36.9928 248.076 38.2438 246.774 39.1884 246.774C39.3014 246.772 39.4137 246.793 39.5179 246.837C39.622 246.881 39.7156 246.947 39.7926 247.029C39.8773 247.1 39.9353 247.198 39.957 247.306C39.9786 247.415 39.9627 247.527 39.9117 247.625C39.6649 248.102 38.3629 248.374 37.5119 248.374ZM37.4013 248.076C38.2523 248.076 39.4862 247.812 39.6905 247.438C39.6905 247.438 39.75 247.327 39.6139 247.191C39.5644 247.137 39.5037 247.095 39.436 247.067C39.3684 247.039 39.2955 247.026 39.2224 247.029C38.5248 247.189 37.8908 247.554 37.4013 248.076Z" fill="#37D38E"/>
<path d="M95.5495 269.412C94.9045 269.407 94.2611 269.347 93.6263 269.233C93.5947 269.227 93.5664 269.21 93.5461 269.185C93.5259 269.16 93.5151 269.129 93.5156 269.097C93.5109 269.067 93.5148 269.037 93.5269 269.01C93.539 268.983 93.5587 268.96 93.5837 268.944C93.6773 268.892 95.8559 267.641 96.9026 267.931C96.9997 267.953 97.0912 267.994 97.1717 268.053C97.2522 268.111 97.3199 268.186 97.3707 268.271C97.4373 268.366 97.4731 268.479 97.4731 268.595C97.4731 268.71 97.4373 268.823 97.3707 268.918C97.1239 269.301 96.3495 269.412 95.5495 269.412ZM94.1113 269.012C95.2687 269.182 96.8516 269.173 97.1409 268.765C97.1834 268.714 97.2175 268.62 97.1409 268.441C97.0759 268.335 96.9721 268.259 96.8516 268.229C96.1878 268.058 94.8687 268.62 94.1113 269.012Z" fill="#37D38E"/>
<path d="M93.6607 269.24C93.6329 269.248 93.6034 269.248 93.5756 269.24C93.552 269.225 93.5336 269.203 93.523 269.177C93.5123 269.151 93.5099 269.123 93.516 269.096C93.5737 268.21 93.9137 267.366 94.4862 266.687C94.6019 266.587 94.7379 266.514 94.8847 266.471C95.0316 266.428 95.1859 266.418 95.3372 266.44C95.7456 266.44 95.8648 266.687 95.8903 266.849C96.0009 267.555 94.5117 268.908 93.7543 269.249L93.6607 269.24ZM95.184 266.687C94.9967 266.686 94.8153 266.752 94.6734 266.874C94.1922 267.412 93.8942 268.088 93.8224 268.806C94.5883 268.338 95.6095 267.283 95.5244 266.857C95.5244 266.857 95.5244 266.713 95.235 266.687H95.184Z" fill="#37D38E"/>
<path d="M86.7861 269.088H93.041L93.6622 254.612H87.4074L86.7861 269.088Z" fill="#E4897B"/>
<path d="M31.0869 244.238L36.312 247.659L47.8516 237.915L42.6179 234.486L31.0869 244.238Z" fill="#E4897B"/>
<path d="M37.1714 247.335L31.742 242.885C31.6461 242.806 31.5258 242.763 31.4016 242.763C31.2775 242.763 31.1572 242.806 31.0612 242.885L26.585 246.399C26.4768 246.485 26.3895 246.595 26.3295 246.719C26.2695 246.844 26.2383 246.98 26.2383 247.118C26.2383 247.257 26.2695 247.393 26.3295 247.517C26.3895 247.642 26.4768 247.751 26.585 247.837C28.5082 249.361 29.5209 250.007 31.9122 251.965C33.3845 253.165 37.0182 256.841 39.0691 258.5C41.12 260.16 43.0007 258.373 42.3199 257.513C39.2649 253.641 38.065 250.331 37.716 248.28C37.6557 247.909 37.4621 247.573 37.1714 247.335Z" fill="#263238"/>
<path d="M92.9968 268.364H86.1888C86.0647 268.365 85.9443 268.407 85.847 268.484C85.7498 268.561 85.6813 268.669 85.6527 268.79L84.4187 274.347C84.3877 274.481 84.3878 274.621 84.4189 274.756C84.45 274.891 84.5113 275.016 84.5982 275.124C84.6851 275.231 84.7954 275.317 84.9206 275.376C85.0458 275.434 85.1826 275.464 85.3208 275.461C87.7802 275.419 91.3374 275.274 94.435 275.274C98.0517 275.274 101.183 275.47 105.421 275.47C107.974 275.47 108.706 272.874 107.625 272.645C102.741 271.572 98.741 271.462 94.5201 268.849C94.0672 268.549 93.5397 268.381 92.9968 268.364Z" fill="#263238"/>
<path d="M55.7824 75.9197C50.3616 78.4727 47.2725 95.5778 47.2725 95.5778L60.5225 100.862C62.462 96.1267 64.0297 91.2471 65.2115 86.2679C67.0326 78.3876 61.3309 73.2816 55.7824 75.9197Z" fill="#263238"/>
<path d="M62.8122 85.5609C59.5358 88.8798 58.0381 95.3814 57.3828 99.6109L60.557 100.879C62.4414 96.2775 63.9775 91.5412 65.1524 86.7098C64.8716 84.9056 64.1738 84.1823 62.8122 85.5609Z" fill="#203048"/>
<path d="M91.9326 75.8006C91.9326 75.8006 98.5874 83.3234 92.3071 129.839H58.8714C58.6416 124.733 61.8669 99.671 56.9141 75.4857C60.6091 74.7692 64.3475 74.2973 68.1047 74.073C72.8377 73.792 77.5833 73.792 82.3164 74.073C85.5616 74.3996 88.7766 74.9772 91.9326 75.8006Z" fill="#263238"/>
<path d="M94.9877 93.8586L89.3541 84.1487C88.2666 88.6792 87.8225 93.3402 88.035 97.9945C88.1882 101.33 91.2433 113.687 93.992 115.491C94.7214 108.304 95.0538 101.082 94.9877 93.8586Z" fill="#203048"/>
<path d="M95.7695 82.4465C96.6205 86.5823 97.4715 90.8203 98.382 94.9732C99.2926 99.126 100.237 103.296 101.335 107.321C101.616 108.317 101.88 109.338 102.186 110.291L102.416 111.023L102.526 111.389V111.346C102.467 111.27 102.399 111.261 102.45 111.346C102.8 111.728 103.247 112.008 103.743 112.155C104.548 112.454 105.376 112.685 106.22 112.844C110.243 113.482 114.317 113.747 118.389 113.636L119.197 118.265C118.057 118.631 116.993 118.895 115.87 119.159C114.747 119.422 113.64 119.644 112.509 119.814C110.167 120.204 107.793 120.363 105.42 120.29C104.101 120.255 102.789 120.084 101.505 119.78C99.8727 119.423 98.3387 118.711 97.0119 117.695C96.1454 116.995 95.4302 116.127 94.91 115.142C94.7738 114.887 94.6547 114.597 94.544 114.35L94.3908 113.95L94.076 113.099C93.642 112.019 93.2846 110.955 92.8931 109.891C91.4549 105.636 90.255 101.339 89.1998 97.0496C88.1445 92.7606 87.234 88.48 86.4766 84.0804L95.7695 82.4465Z" fill="#E4897B"/>
<path d="M83.5852 80.3619C81.8236 86.0721 88.9635 103.101 88.9635 103.101L103.184 99.5264C103.184 99.5264 102.639 90.676 99.3968 83.6553C94.512 73.0689 85.6957 73.5114 83.5852 80.3619Z" fill="#263238"/>
<path d="M118.271 113.635L125.351 113.457L121.947 120.826C121.947 120.826 119.062 121.209 116.697 117.32L114.203 114.342L117.071 113.772C117.466 113.688 117.868 113.643 118.271 113.635Z" fill="#E4897B"/>
<path d="M129.82 114.827L125.769 120.937L121.948 120.826L125.352 113.457L129.82 114.827Z" fill="#E4897B"/>
<path d="M93.6602 254.612L93.3369 262.075H87.082L87.4054 254.612H93.6602Z" fill="#CE6F64"/>
<path d="M42.6174 234.486L47.8511 237.915L41.8941 242.936L36.6689 239.515L42.6174 234.486Z" fill="#CE6F64"/>
<path d="M69.9082 53.1808C70.2826 59.3675 70.189 63.0183 73.3122 66.1926C78.0097 70.9837 85.6602 68.1499 87.1409 61.9376C88.477 56.372 87.643 47.1813 81.5839 44.7134C80.2469 44.1737 78.7948 43.9826 77.3638 44.1579C75.9327 44.3333 74.5697 44.8693 73.4026 45.7157C72.2355 46.5621 71.3025 47.6912 70.6913 48.9969C70.0801 50.3027 69.8106 51.7424 69.9082 53.1808Z" fill="#E4897B"/>
<path d="M62.6248 52.0916C64.1651 57.7337 67.7903 64.2353 72.4793 64.6523C78.3002 65.1629 80.9298 59.1463 81.6957 52.9341C85.1847 50.5428 83.3551 47.9132 86.8527 47.5813C91.346 47.1558 89.9078 38.9351 83.9933 37.6161C83.9933 37.6161 85.9762 41.3179 81.8148 39.4457C77.8573 37.5649 73.4606 36.8027 69.1009 37.2417C69.1009 37.2417 74.4111 39.8968 69.22 41.0797C64.0289 42.2625 62.4801 45.4623 64.8714 47.3941C64.8714 47.4026 61.6121 48.3812 62.6248 52.0916Z" fill="#263238"/>
<path d="M78.1471 54.2103C78.2614 55.7481 78.8807 57.2051 79.9086 58.3546C81.2702 59.8609 82.6914 58.9248 82.9297 57.0952C83.1509 55.4527 82.6999 52.687 81.032 51.853C79.364 51.019 78.0364 52.3551 78.1471 54.2103Z" fill="#E4897B"/>
<path d="M80.4443 129.838C80.4443 129.838 86.5374 173.963 81.7378 191.646C74.1299 219.644 45.0428 243.276 45.0428 243.276L35.1797 236.809C35.1797 236.809 59.9522 216.853 62.9818 193.408C65.705 172.363 58.8715 146.909 58.8715 129.83L80.4443 129.838Z" fill="#37D38E"/>
<path opacity="0.1" d="M80.4443 129.838C80.4443 129.838 86.5374 173.963 81.7378 191.646C74.1299 219.644 45.0428 243.276 45.0428 243.276L35.1797 236.809C35.1797 236.809 59.9522 216.853 62.9818 193.408C65.705 172.363 58.8715 146.909 58.8715 129.83L80.4443 129.838Z" fill="black"/>
<path d="M82.9637 155.062C81.3416 153.204 79.5558 151.495 77.6279 149.956C78.6661 164.279 79.5171 185.494 78.5725 200.565C79.8426 197.676 80.9006 194.698 81.7383 191.655C84.0785 183.018 83.8317 168.1 82.9637 155.062Z" fill="#37D38E"/>
<path opacity="0.3" d="M82.9637 155.062C81.3416 153.204 79.5558 151.495 77.6279 149.956C78.6661 164.279 79.5171 185.494 78.5725 200.565C79.8426 197.676 80.9006 194.698 81.7383 191.655C84.0785 183.018 83.8317 168.1 82.9637 155.062Z" fill="black"/>
<path d="M49.0175 241.073C49.06 241.073 45.1965 243.626 45.1965 243.626L34.4229 236.562L37.8268 233.745L49.0175 241.073Z" fill="#37D38E"/>
<path opacity="0.3" d="M49.0175 241.073C49.06 241.073 45.1965 243.626 45.1965 243.626L34.4229 236.562L37.8268 233.745L49.0175 241.073Z" fill="black"/>
<path d="M92.3065 129.838C92.3065 129.838 101.719 169.75 102.382 188.821C103.131 210.198 95.6679 260.628 95.6679 260.628H85.073C85.073 260.628 83.771 209.807 83.3029 190.336C82.7838 169.103 70.3252 129.838 70.3252 129.838H92.3065Z" fill="#37D38E"/>
<path opacity="0.1" d="M92.3065 129.838C92.3065 129.838 101.719 169.75 102.382 188.821C103.131 210.198 95.6679 260.628 95.6679 260.628H85.073C85.073 260.628 83.771 209.807 83.3029 190.336C82.7838 169.103 70.3252 129.838 70.3252 129.838H92.3065Z" fill="black"/>
<path d="M97.7027 256.416C97.7538 256.416 97.107 260.807 97.107 260.807H84.2229L83.874 256.884L97.7027 256.416Z" fill="#37D38E"/>
<path opacity="0.3" d="M97.7027 256.416C97.7538 256.416 97.107 260.807 97.107 260.807H84.2229L83.874 256.884L97.7027 256.416Z" fill="black"/>
<path d="M255.207 91.4844C255.931 92.1652 256.501 92.7439 257.096 93.3906C257.692 94.0374 258.254 94.6671 258.798 95.3224C259.905 96.6244 260.943 97.9945 261.947 99.3732C263.953 102.139 265.737 105.058 267.283 108.104L267.598 108.726C267.752 109.026 267.88 109.339 267.981 109.662C268.186 110.284 268.312 110.931 268.355 111.585C268.411 112.739 268.252 113.893 267.887 114.989C267.265 116.81 266.342 118.513 265.155 120.027C263.017 122.773 260.495 125.198 257.667 127.226L255.548 124.792C256.543 123.627 257.582 122.376 258.509 121.125C259.453 119.913 260.306 118.633 261.062 117.295C261.768 116.128 262.291 114.86 262.611 113.534C262.721 113.059 262.741 112.569 262.671 112.087C262.64 111.925 262.589 111.768 262.517 111.619C262.486 111.554 262.449 111.491 262.407 111.432L262.134 110.972C260.493 108.296 258.712 105.708 256.799 103.22C255.854 101.969 254.841 100.769 253.82 99.5859C253.318 98.9902 252.799 98.4115 252.28 97.8329C251.761 97.2542 251.199 96.6755 250.748 96.2245L255.207 91.4844Z" fill="#E4897B"/>
<path d="M256.364 124.077L250.007 123.039L253.334 128.604C253.334 128.604 257.428 128.46 258.593 126.051L256.364 124.077Z" fill="#E4897B"/>
<path d="M245.31 125.609L248.339 130.128L253.334 128.604L250.007 123.039L245.31 125.609Z" fill="#E4897B"/>
<path d="M256.059 269.335C255.626 269.372 255.195 269.255 254.842 269.003C254.735 268.902 254.656 268.776 254.613 268.636C254.57 268.495 254.563 268.347 254.595 268.203C254.601 268.112 254.632 268.024 254.684 267.949C254.737 267.874 254.809 267.815 254.893 267.778C255.633 267.446 257.573 268.688 257.795 268.833C257.82 268.849 257.839 268.872 257.85 268.9C257.861 268.927 257.862 268.958 257.854 268.986C257.851 269.015 257.838 269.043 257.819 269.064C257.799 269.086 257.772 269.1 257.743 269.105C257.192 269.245 256.627 269.322 256.059 269.335ZM255.208 268.016C255.145 268.006 255.082 268.006 255.02 268.016C254.983 268.033 254.951 268.061 254.929 268.096C254.906 268.13 254.894 268.17 254.893 268.212C254.87 268.307 254.872 268.406 254.899 268.5C254.926 268.594 254.977 268.679 255.046 268.748C255.369 269.037 256.203 269.08 257.318 268.858C256.679 268.437 255.961 268.15 255.208 268.016Z" fill="#37D38E"/>
<path d="M257.759 269.096H257.683C257.078 268.747 255.913 267.394 256.057 266.653C256.085 266.537 256.149 266.432 256.241 266.355C256.334 266.279 256.448 266.234 256.568 266.228C256.683 266.211 256.8 266.221 256.91 266.256C257.021 266.292 257.122 266.352 257.206 266.432C257.904 267.045 257.912 268.883 257.912 268.985C257.911 269.011 257.903 269.036 257.89 269.058C257.876 269.08 257.858 269.099 257.836 269.113L257.759 269.096ZM256.67 266.543H256.602C256.415 266.543 256.372 266.645 256.355 266.721C256.27 267.155 256.993 268.194 257.598 268.679C257.612 267.965 257.407 267.264 257.01 266.67C256.959 266.623 256.899 266.587 256.833 266.565C256.767 266.543 256.697 266.535 256.627 266.543H256.67Z" fill="#37D38E"/>
<path d="M227.055 269.335C226.512 269.387 225.967 269.248 225.515 268.944C225.413 268.853 225.334 268.739 225.285 268.612C225.236 268.485 225.219 268.347 225.234 268.212C225.239 268.129 225.266 268.049 225.31 267.979C225.355 267.909 225.416 267.852 225.489 267.812C226.281 267.369 228.817 268.663 229.106 268.824C229.132 268.842 229.154 268.866 229.167 268.894C229.181 268.923 229.186 268.955 229.183 268.986C229.178 269.016 229.163 269.044 229.142 269.065C229.121 269.086 229.093 269.1 229.063 269.105C228.403 269.246 227.73 269.323 227.055 269.335ZM225.923 268.016C225.826 268.01 225.729 268.03 225.642 268.076C225.612 268.09 225.586 268.113 225.568 268.142C225.55 268.17 225.54 268.203 225.54 268.237C225.527 268.326 225.536 268.416 225.566 268.501C225.595 268.585 225.645 268.661 225.71 268.722C226.102 269.071 227.149 269.131 228.561 268.893C227.738 268.454 226.846 268.157 225.923 268.016Z" fill="#37D38E"/>
<path d="M229.039 269.096H228.971C228.213 268.755 226.707 267.394 226.826 266.653C226.826 266.483 226.979 266.27 227.396 266.228C227.549 266.212 227.703 266.226 227.849 266.272C227.995 266.317 228.131 266.392 228.247 266.492C229.047 267.156 229.2 268.875 229.2 268.951C229.204 268.977 229.2 269.003 229.189 269.027C229.179 269.051 229.162 269.072 229.141 269.087C229.109 269.101 229.073 269.104 229.039 269.096ZM227.515 266.543H227.422C227.149 266.543 227.132 266.679 227.124 266.713C227.056 267.147 228.077 268.228 228.826 268.696C228.752 267.968 228.455 267.282 227.975 266.73C227.846 266.62 227.685 266.554 227.515 266.543Z" fill="#37D38E"/>
<path d="M239.098 71.9203C238.851 75.7668 238.187 83.579 241.14 85.7405C241.14 85.7405 240.604 89.6806 233.634 90.5997C225.975 91.5954 229.473 87.2723 229.473 87.2723C233.532 85.7235 233.013 82.6344 231.907 79.809L239.098 71.9203Z" fill="#E4897B"/>
<path d="M223.243 65.1206C223.201 65.1206 223.159 65.1116 223.121 65.0939C223.083 65.0763 223.049 65.0505 223.022 65.0184C222.779 64.7298 222.471 64.5023 222.123 64.3545C221.776 64.2067 221.399 64.1426 221.022 64.1674C220.982 64.1747 220.941 64.1738 220.902 64.1647C220.862 64.1557 220.825 64.1387 220.793 64.1148C220.76 64.0909 220.733 64.0606 220.712 64.0258C220.691 63.9909 220.678 63.9523 220.673 63.9121C220.663 63.8321 220.686 63.7515 220.735 63.6878C220.784 63.624 220.857 63.5824 220.937 63.5717C221.417 63.5311 221.901 63.6074 222.345 63.7942C222.79 63.9809 223.183 64.2725 223.49 64.644C223.527 64.6884 223.55 64.7423 223.558 64.7994C223.566 64.8566 223.557 64.9148 223.533 64.9673C223.509 65.0197 223.471 65.0643 223.422 65.096C223.374 65.1276 223.318 65.145 223.26 65.1461L223.243 65.1206Z" fill="#263238"/>
<path d="M221.914 68.89C221.613 70.1105 221.146 71.2843 220.527 72.379C220.811 72.5319 221.126 72.6204 221.448 72.638C221.77 72.6557 222.092 72.6021 222.391 72.4812L221.914 68.89Z" fill="#DE5753"/>
<path d="M222.256 67.9542C222.324 68.4648 222.111 68.9073 221.78 68.9584C221.448 69.0095 221.116 68.618 221.056 68.1074C220.997 67.5968 221.201 67.1543 221.533 67.1117C221.865 67.0692 222.197 67.4096 222.256 67.9542Z" fill="#263238"/>
<path d="M221.685 67.1199L220.417 66.9241C220.417 66.9241 221.166 67.8007 221.685 67.1199Z" fill="#263238"/>
<path d="M236.05 268.961H229.668L229.242 254.196H235.625L236.05 268.961Z" fill="#E4897B"/>
<path d="M265.026 268.961H258.644L256.593 254.196H262.975L265.026 268.961Z" fill="#E4897B"/>
<path d="M258.252 268.245H265.418C265.54 268.244 265.658 268.287 265.751 268.367C265.843 268.447 265.903 268.558 265.92 268.679L266.771 274.355C266.786 274.498 266.771 274.643 266.727 274.78C266.683 274.917 266.61 275.043 266.514 275.15C266.417 275.257 266.299 275.342 266.168 275.4C266.036 275.458 265.893 275.488 265.749 275.487C263.256 275.444 262.048 275.3 258.899 275.3C256.959 275.3 254.125 275.496 251.453 275.496C248.781 275.496 248.636 272.849 249.751 272.611C254.746 271.538 255.537 270.058 257.214 268.636C257.507 268.394 257.872 268.256 258.252 268.245Z" fill="#263238"/>
<path d="M229.456 268.245H236.612C236.736 268.244 236.855 268.287 236.949 268.367C237.043 268.446 237.105 268.557 237.123 268.679L237.974 274.355C237.99 274.498 237.975 274.643 237.931 274.78C237.886 274.917 237.814 275.043 237.717 275.15C237.621 275.257 237.503 275.342 237.371 275.4C237.239 275.458 237.097 275.488 236.953 275.487C234.459 275.445 233.251 275.3 230.102 275.3C228.162 275.3 224.145 275.496 221.473 275.496C218.801 275.496 218.656 272.849 219.771 272.611C224.767 271.538 226.732 270.058 228.417 268.637C228.71 268.394 229.075 268.256 229.456 268.245Z" fill="#263238"/>
<path d="M229.242 254.196L229.463 261.812H235.846L235.625 254.196H229.242Z" fill="#CE6F64"/>
<path d="M262.975 254.196H256.593L257.657 261.812H264.03L262.975 254.196Z" fill="#CE6F64"/>
<path d="M239.182 63.9551C239.616 70.2695 239.931 72.9331 237.191 76.5668C233.064 82.0217 225.217 81.1793 222.903 75.1201C220.818 69.6653 220.46 60.2617 226.264 56.9599C227.541 56.2281 228.983 55.8347 230.455 55.817C231.926 55.7992 233.378 56.1577 234.672 56.8585C235.966 57.5592 237.06 58.5789 237.849 59.8209C238.638 61.0629 239.097 62.4859 239.182 63.9551Z" fill="#E4897B"/>
<path d="M242.859 69.8181C246.399 71.7924 249.028 66.9247 249.028 66.9247C249.028 66.9247 242.68 67.614 243.25 63.8355C243.999 58.8232 240.408 52.73 231.404 53.5129C230.902 53.5555 230.426 53.6151 229.958 53.6916C229.015 53.2449 227.949 53.1295 226.933 53.3643C225.916 53.5991 225.009 54.1702 224.358 54.9852C221.805 55.1979 218.359 58.2445 220.699 62.2697C220.863 61.8072 221.118 61.382 221.448 61.0187C221.643 63.376 223.703 67.1204 226.273 67.3672C226.826 70.5925 224.681 74.3283 225.422 77.6983C226.52 82.5575 234.715 83.6553 234.715 83.6553C234.432 83.0485 234.327 82.3741 234.411 81.71C234.496 81.046 234.766 80.4193 235.191 79.9024C240.757 82.4554 244.425 79.9619 244.425 79.9619C240.629 78.5493 241.778 76.0303 241.778 76.0303C243.088 76.6122 244.573 76.6633 245.921 76.1729C247.268 75.6825 248.373 74.6888 249.003 73.4007C247.742 73.4606 246.491 73.1541 245.401 72.5184C244.31 71.8826 243.428 70.9447 242.859 69.8181Z" fill="#263238"/>
<path d="M228.493 68.3376C228.508 68.9436 228.403 69.5466 228.184 70.1118C227.965 70.6771 227.636 71.1934 227.217 71.631C226.094 72.7968 224.715 71.9799 224.341 70.4906C224.009 69.1461 224.196 66.925 225.66 66.3122C225.982 66.1856 226.33 66.1416 226.674 66.1841C227.017 66.2265 227.345 66.3542 227.626 66.5555C227.908 66.7567 228.135 67.0252 228.286 67.3364C228.438 67.6477 228.509 67.9918 228.493 68.3376Z" fill="#E4897B"/>
<path d="M233.795 127.167C233.795 127.167 235.412 169.173 239.258 193.834C242.356 213.765 256.117 260.331 256.117 260.331H264.814C264.814 260.331 257.64 215.356 256.066 195.656C252.083 145.796 262.423 135.09 252.662 124.708L233.795 127.167Z" fill="#263238"/>
<path d="M241.063 140.451C241.063 140.451 237.132 139.77 234.834 147.259C235.685 161.445 237.14 180.269 239.259 193.834C239.727 196.855 240.442 200.497 241.319 204.488C239.659 180.524 241.063 140.451 241.063 140.451Z" fill="#161F33"/>
<path d="M227.013 128.051C227.013 128.051 219.848 174.524 220.265 193.969C220.699 214.198 228.111 260.347 228.111 260.347H236.731C236.731 260.347 235.37 215.397 236.127 195.535C236.978 173.877 245.82 125.609 245.82 125.609L227.013 128.051Z" fill="#263238"/>
<path d="M266.074 260.739H254.509L253.606 256.858L265.988 256.943L266.074 260.739Z" fill="#37D38E"/>
<path opacity="0.2" d="M266.074 260.739H254.509L253.606 256.858L265.988 256.943L266.074 260.739Z" fill="black"/>
<path d="M252.228 85.7485C255.555 86.0719 260.61 95.5265 260.61 95.5265L252.211 101.969C252.211 101.969 245.258 95.8669 246.084 92.4374C246.943 88.8717 249.037 85.4507 252.228 85.7485Z" fill="#37D38E"/>
<path opacity="0.1" d="M252.228 85.7485C255.555 86.0719 260.61 95.5265 260.61 95.5265L252.211 101.969C252.211 101.969 245.258 95.8669 246.084 92.4374C246.943 88.8717 249.037 85.4507 252.228 85.7485Z" fill="black"/>
<path d="M249.717 89.8165C248.869 89.588 247.991 89.4904 247.113 89.5272C246.667 90.4576 246.322 91.4333 246.084 92.4376C245.233 95.8416 252.211 101.969 252.211 101.969L252.832 101.492L249.717 89.8165Z" fill="#37D38E"/>
<path opacity="0.3" d="M249.717 89.8165C248.869 89.588 247.991 89.4904 247.113 89.5272C246.667 90.4576 246.322 91.4333 246.084 92.4376C245.233 95.8416 252.211 101.969 252.211 101.969L252.832 101.492L249.717 89.8165Z" fill="black"/>
<path d="M224.162 98.8969C221.737 105.033 219.184 111.27 217.15 117.423C217.014 117.815 216.903 118.189 216.784 118.572L216.495 119.517C216.416 119.795 216.416 120.089 216.495 120.368C216.975 121.431 217.737 122.344 218.699 123.006C221.243 124.831 224.015 126.316 226.945 127.422L226.179 130.554C222.575 130.079 219.09 128.942 215.899 127.201C213.935 126.152 212.336 124.532 211.312 122.555C210.724 121.291 210.52 119.882 210.725 118.504C210.744 118.335 210.773 118.167 210.81 118.002L210.895 117.644L211.04 116.998C211.142 116.564 211.244 116.147 211.355 115.721C212.206 112.317 213.295 109.083 214.444 105.875C215.592 102.667 216.792 99.5011 218.145 96.3439L224.162 98.8969Z" fill="#E4897B"/>
<path d="M218.997 90.2842C218.997 90.2842 216.12 91.7394 227.013 128.051L252.696 124.699C250.892 114.299 250.041 107.857 252.228 85.7484C248.545 85.4846 244.848 85.4846 241.165 85.7484C237.244 85.9764 233.345 86.4883 229.498 87.2802C224.571 88.378 218.997 90.2842 218.997 90.2842Z" fill="#37D38E"/>
<path opacity="0.1" d="M218.997 90.2842C218.997 90.2842 216.12 91.7394 227.013 128.051L252.696 124.699C250.892 114.299 250.041 107.857 252.228 85.7484C248.545 85.4846 244.848 85.4846 241.165 85.7484C237.244 85.9764 233.345 86.4883 229.498 87.2802C224.571 88.378 218.997 90.2842 218.997 90.2842Z" fill="black"/>
<path d="M252.884 123.141L254.356 125.277C254.467 125.448 254.28 125.652 253.99 125.694L227.056 129.217C226.826 129.217 226.614 129.158 226.58 129.013L226.052 126.741C226.009 126.588 226.197 126.426 226.452 126.392L252.458 122.988C252.536 122.976 252.616 122.983 252.691 123.01C252.765 123.037 252.832 123.082 252.884 123.141Z" fill="#37D38E"/>
<path opacity="0.2" d="M252.884 123.141L254.356 125.277C254.467 125.448 254.28 125.652 253.99 125.694L227.056 129.217C226.826 129.217 226.614 129.158 226.58 129.013L226.052 126.741C226.009 126.588 226.197 126.426 226.452 126.392L252.458 122.988C252.536 122.976 252.616 122.983 252.691 123.01C252.765 123.037 252.832 123.082 252.884 123.141Z" fill="black"/>
<path d="M249.769 126.503L250.467 126.409C250.603 126.409 250.697 126.307 250.68 126.222L249.965 123.277C249.938 123.227 249.894 123.188 249.841 123.166C249.789 123.144 249.73 123.142 249.676 123.158L248.978 123.243C248.833 123.243 248.739 123.345 248.765 123.439L249.48 126.375C249.497 126.469 249.633 126.52 249.769 126.503Z" fill="#263238"/>
<path d="M232.885 128.681L233.583 128.588C233.719 128.588 233.821 128.486 233.796 128.401L233.081 125.456C233.053 125.407 233.01 125.367 232.957 125.344C232.905 125.321 232.847 125.316 232.791 125.329L232.094 125.422C231.957 125.422 231.855 125.524 231.881 125.609L232.596 128.554C232.613 128.681 232.749 128.733 232.885 128.681Z" fill="#263238"/>
<path d="M220.197 102.607C220.904 105.892 221.899 110.053 223.354 115.321L223.669 101.969L220.197 102.607Z" fill="#37D38E"/>
<path opacity="0.3" d="M220.197 102.607C220.904 105.892 221.899 110.053 223.354 115.321L223.669 101.969L220.197 102.607Z" fill="black"/>
<path d="M218.995 90.2847C215.804 91.5697 213.038 102.488 213.038 102.488L224.016 107.832C224.016 107.832 229.318 94.4802 226.943 91.8761C224.569 89.272 222.671 88.8125 218.995 90.2847Z" fill="#37D38E"/>
<path opacity="0.1" d="M218.995 90.2847C215.804 91.5697 213.038 102.488 213.038 102.488L224.016 107.832C224.016 107.832 229.318 94.4802 226.943 91.8761C224.569 89.272 222.671 88.8125 218.995 90.2847Z" fill="black"/>
<path d="M238.202 260.739H226.637L225.735 256.858L238.611 256.943L238.202 260.739Z" fill="#37D38E"/>
<path opacity="0.2" d="M238.202 260.739H226.637L225.735 256.858L238.611 256.943L238.202 260.739Z" fill="black"/>
<path d="M227.123 126.367L226.196 125.984C225.968 125.892 225.719 125.861 225.475 125.895C225.232 125.93 225.001 126.028 224.808 126.18C224.614 126.332 224.464 126.532 224.373 126.761C224.282 126.99 224.253 127.239 224.29 127.482L224.962 131.916C224.994 132.138 225.075 132.35 225.199 132.536C225.324 132.723 225.488 132.88 225.68 132.996C225.872 133.111 226.087 133.183 226.311 133.205C226.534 133.227 226.759 133.2 226.97 133.124C227.308 133.002 227.624 132.826 227.906 132.605C228.214 132.35 228.458 132.026 228.617 131.659C228.777 131.293 228.848 130.894 228.825 130.495L228.732 128.657C228.716 128.16 228.555 127.679 228.269 127.272C227.983 126.865 227.585 126.551 227.123 126.367Z" fill="#E4897B"/>
</svg>
